<svg xmlns="http://www.w3.org/2000/svg" xmlns:svg="http://www.w3.org/2000/svg" id="svg1344" xml:space="preserve" width="682.66669" height="682.66669" viewBox="0 0 682.66669 682.66669"><defs id="defs1348"><clipPath clipPathUnits="userSpaceOnUse" id="clipPath1358"><path d="M 0,512 H 512 V 0 H 0 Z" id="path1356"></path></clipPath></defs><g id="g1350" transform="matrix(1.3333333,0,0,-1.3333333,0,682.66667)"><g id="g1352"><g id="g1354" clip-path="url(#clipPath1358)"><g id="g1360" transform="translate(9.9995,267.9995)"><path d="M 0,0 C 0,87.887 46.887,169.098 123,213.042" style="fill:none;stroke:#000000;stroke-width:20;stroke-linecap:round;stroke-linejoin:round;stroke-miterlimit:22.926;stroke-dasharray:none;stroke-opacity:1" id="path1362"></path></g><g id="g1364" transform="translate(66.6777,318.728)"><path d="M 0,0 C 8.905,33.232 26.4,63.536 50.729,87.864" style="fill:none;stroke:#000000;stroke-width:20;stroke-linecap:round;stroke-linejoin:round;stroke-miterlimit:22.926;stroke-dasharray:none;stroke-opacity:1" id="path1366"></path></g><g id="g1368" transform="translate(378.999,54.957)"><path d="M 0,0 C -76.112,-43.944 -169.887,-43.944 -246,0" style="fill:none;stroke:#000000;stroke-width:20;stroke-linecap:round;stroke-linejoin:round;stroke-miterlimit:22.926;stroke-dasharray:none;stroke-opacity:1" id="path1370"></path></g><g id="g1372" transform="translate(306.7275,78.6777)"><path d="M 0,0 C -33.232,-8.905 -68.224,-8.905 -101.457,0" style="fill:none;stroke:#000000;stroke-width:20;stroke-linecap:round;stroke-linejoin:round;stroke-miterlimit:22.926;stroke-dasharray:none;stroke-opacity:1" id="path1374"></path></g><g id="g1376" transform="translate(378.999,481.0415)"><path d="M 0,0 C 76.113,-43.944 123,-125.155 123,-213.042" style="fill:none;stroke:#000000;stroke-width:20;stroke-linecap:round;stroke-linejoin:round;stroke-miterlimit:22.926;stroke-dasharray:none;stroke-opacity:1" id="path1378"></path></g><g id="g1380" transform="translate(394.5928,406.5923)"><path d="M 0,0 C 24.328,-24.328 41.823,-54.631 50.729,-87.864" style="fill:none;stroke:#000000;stroke-width:20;stroke-linecap:round;stroke-linejoin:round;stroke-miterlimit:22.926;stroke-dasharray:none;stroke-opacity:1" id="path1382"></path></g><g id="g1384" transform="translate(256.0005,197.998)"><path d="M 0,0 C 38.555,0 70,31.445 70,70 70,108.556 38.555,140.001 0,140.001 -38.556,140.001 -70.001,108.556 -70.001,70 -70.001,31.445 -38.556,0 0,0 Z" style="fill:none;stroke:#000000;stroke-width:20;stroke-linecap:round;stroke-linejoin:round;stroke-miterlimit:22.926;stroke-dasharray:none;stroke-opacity:1" id="path1386"></path></g><g id="g1388" transform="translate(255.9995,245.4995)"><path d="M 0,0 C 12.393,0 22.5,10.107 22.5,22.5 22.5,34.893 12.393,45 0,45 -12.393,45 -22.5,34.893 -22.5,22.5 -22.5,10.107 -12.393,0 0,0 Z" style="fill:none;stroke:#000000;stroke-width:20;stroke-linecap:round;stroke-linejoin:round;stroke-miterlimit:22.926;stroke-dasharray:none;stroke-opacity:1" id="path1390"></path></g><g id="g1392" transform="translate(196.0303,305.0752)"><path d="M 0,0 C -26.675,27.294 -37.944,58.903 -40.091,85.919 -50.918,222.171 157.47,203.365 157.47,116.424 157.47,54.746 95.894,77.18 89.599,26.908" style="fill:none;stroke:#000000;stroke-width:20;stroke-linecap:round;stroke-linejoin:round;stroke-miterlimit:22.926;stroke-dasharray:none;stroke-opacity:1" id="path1394"></path></g><g id="g1396" transform="translate(253.8774,197.5342)"><path d="m 0,0 c -10.299,-36.752 -32.04,-62.319 -54.365,-77.687 -112.584,-77.502 -200.49,112.37 -125.198,155.84 53.419,30.842 64.776,-33.716 111.471,-14.015" style="fill:none;stroke:#000000;stroke-width:20;stroke-linecap:round;stroke-linejoin:round;stroke-miterlimit:22.926;stroke-dasharray:none;stroke-opacity:1" id="path1398"></path></g><g id="g1400" transform="translate(318.0986,301.3979)"><path d="m 0,0 c 36.973,9.452 69.979,3.406 94.447,-8.241 123.412,-58.75 2.931,-229.816 -72.361,-186.345 -53.419,30.841 -3.192,72.952 -43.596,103.541" style="fill:none;stroke:#000000;stroke-width:20;stroke-linecap:round;stroke-linejoin:round;stroke-miterlimit:22.926;stroke-dasharray:none;stroke-opacity:1" id="path1402"></path></g></g></g></g></svg>