<svg xmlns="http://www.w3.org/2000/svg" xmlns:xodm="http://www.corel.com/coreldraw/odm/2003" clip-rule="evenodd" fill-rule="evenodd" height="512" viewBox="0 0 1223.74 1223.75" width="512"><g id="&#x421;&#x43B;&#x43E;&#x439;_x0020_1"><path d="m301.97 881.38 579.4-579.4-122.04.26v-56.89l219.5-.44-.44 219.5h-56.89l.24-122.04-579.37 579.38 122.02-.24v56.89l-190.99.38-28.5.04.06-28.49.39-190.99h56.87l-.26 122.04zm309.89-881.38c-168.95 0-321.92 68.51-432.65 179.22-110.72 110.72-179.21 263.7-179.21 432.66s68.49 321.94 179.21 432.65c110.73 110.73 263.7 179.22 432.65 179.22 168.99 0 321.96-68.49 432.67-179.22 110.72-110.7 179.21-263.69 179.21-432.65s-68.49-321.94-179.21-432.66c-110.71-110.71-263.68-179.22-432.67-179.22zm392.28 219.61c-100.38-100.38-239.07-162.5-392.28-162.5-153.17 0-291.87 62.12-392.27 162.5-100.37 100.38-162.47 239.08-162.47 392.27 0 153.18 62.1 291.89 162.47 392.26 100.4 100.4 239.1 162.5 392.27 162.5 153.21 0 291.9-62.1 392.28-162.5 100.38-100.37 162.47-239.08 162.47-392.26 0-153.19-62.09-291.89-162.47-392.27z"></path></g></svg>