<svg xmlns="http://www.w3.org/2000/svg" xmlns:xlink="http://www.w3.org/1999/xlink" xmlns:svgjs="http://svgjs.dev/svgjs" id="Layer_1" viewBox="0 0 512 512" data-name="Layer 1" width="300" height="300"><g width="100%" height="100%" transform="matrix(1,0,0,1,0,0)"><path d="m356.01 93.768c2.213-3.824 7.104-5.131 10.932-2.918 33.449 19.354 61.503 47.184 81.129 80.481 20.221 34.308 30.909 73.605 30.909 113.645 0 4.418-3.582 8-8 8s-8-3.582-8-8c0-74.064-39.87-143.142-104.052-180.276-3.824-2.213-5.13-7.107-2.918-10.932zm-317.282 199.208c4.418 0 8-3.582 8-8 0-74.064 39.87-143.142 104.052-180.276 3.824-2.213 5.13-7.107 2.918-10.932-2.213-3.823-7.105-5.131-10.932-2.918-33.449 19.354-61.503 47.184-81.129 80.481-20.221 34.308-30.909 73.605-30.909 113.645 0 4.418 3.582 8 8 8zm320.2 172.277c-31.488 18.219-67.477 27.849-104.074 27.849s-72.586-9.63-104.074-27.849c-3.827-2.213-8.719-.906-10.932 2.919-2.212 3.824-.906 8.718 2.919 10.931 33.921 19.625 72.68 29.999 112.087 29.999s78.166-10.374 112.087-29.999c3.825-2.213 5.131-7.106 2.919-10.931-2.213-3.824-7.105-5.131-10.932-2.919zm-167.279-399.15c0-34.851 28.354-63.204 63.205-63.204s63.204 28.354 63.204 63.204-28.354 63.204-63.204 63.204-63.205-28.354-63.205-63.204zm16 0c0 26.028 21.176 47.204 47.205 47.204s47.204-21.176 47.204-47.204-21.176-47.204-47.204-47.204-47.205 21.176-47.205 47.204zm-78.239 257.745v110.409c0 4.418-3.582 8-8 8h-110.409c-4.418 0-8-3.582-8-8v-110.409c0-4.418 3.582-8 8-8h110.409c4.418 0 8 3.582 8 8zm-16 8h-94.409v94.409h94.409zm394.449 106.526c-1.446 2.409-4.05 3.883-6.859 3.883h-117.701c-2.81 0-5.413-1.474-6.859-3.883s-1.521-5.4-.2-7.88l58.851-110.409c1.39-2.608 4.104-4.237 7.06-4.237s5.67 1.629 7.06 4.237l58.851 110.409c1.321 2.479 1.246 5.471-.2 7.88zm-20.188-12.117-45.521-85.401-45.521 85.401h91.043zm-371.598-157.497c0-76.524 62.257-138.781 138.781-138.781s138.781 62.257 138.781 138.781v27.082c0 4.418-3.582 8-8 8h-44.987l-7.193 1.418-5.483 13.236 4.52 6.739c3.234 4.821 2.604 11.304-1.503 15.414l-15.939 15.939c-4.107 4.108-10.591 4.739-15.415 1.505l-6.74-4.52-13.236 5.483-1.57 7.961c-1.124 5.699-6.155 9.835-11.964 9.835h-22.539c-5.809 0-10.841-4.136-11.965-9.835l-1.57-7.961-13.235-5.483-6.739 4.52c-4.828 3.235-11.31 2.601-15.416-1.505l-15.938-15.938c-4.107-4.11-4.739-10.593-1.504-15.416l4.519-6.739-5.483-13.236-7.192-1.418h-44.988c-4.418 0-8-3.582-8-8v-27.082zm219.179 19.838v-16.283l-9.095-1.793c-2.626-.518-4.818-2.314-5.843-4.787l-8.764-21.154c-1.024-2.473-.744-5.294.746-7.518l5.164-7.7-11.513-11.513-7.7 5.164c-2.224 1.49-5.045 1.771-7.519.746l-21.154-8.765c-2.472-1.024-4.269-3.217-4.786-5.843l-1.793-9.094h-16.284l-1.793 9.094c-.518 2.626-2.314 4.818-4.786 5.843l-21.153 8.765c-2.475 1.025-5.295.743-7.519-.746l-7.7-5.164-11.513 11.513 5.164 7.7c1.49 2.224 1.771 5.045.746 7.518l-8.764 21.154c-1.024 2.473-3.217 4.27-5.843 4.787l-9.095 1.794v16.282l9.094 1.793c2.626.518 4.819 2.313 5.844 4.787l8.764 21.153c1.024 2.473.744 5.294-.746 7.518l-5.164 7.7 11.514 11.514 7.7-5.164c2.224-1.489 5.045-1.771 7.519-.746l21.152 8.764c2.472 1.024 4.269 3.217 4.786 5.843l1.793 9.095h16.284l1.793-9.095c.518-2.626 2.314-4.818 4.787-5.843l21.153-8.764c2.474-1.024 5.295-.743 7.518.746l7.7 5.164 11.514-11.514-5.164-7.7c-1.49-2.224-1.771-5.045-.746-7.518l8.764-21.153c1.024-2.474 3.218-4.27 5.844-4.787zm-203.179-.756h26.384v-18.655c0-5.809 4.137-10.841 9.836-11.964l7.96-1.569 5.483-13.237-4.52-6.739c-3.236-4.822-2.604-11.307 1.505-15.416l15.938-15.938c4.107-4.105 10.588-4.739 15.413-1.506l6.741 4.521 13.237-5.484 1.569-7.96c1.123-5.698 6.155-9.835 11.965-9.835h22.539c5.809 0 10.841 4.137 11.964 9.835l1.569 7.96 13.238 5.484 6.738-4.52c4.824-3.234 11.307-2.602 15.414 1.503l15.939 15.939c4.106 4.107 4.74 10.591 1.505 15.415l-4.52 6.74 5.483 13.237 7.961 1.569c5.699 1.124 9.835 6.155 9.835 11.964v18.655h26.384v-19.082c0-67.702-55.079-122.781-122.781-122.781s-122.781 55.079-122.781 122.781v19.082zm176.114-7.386c0 29.408-23.925 53.333-53.333 53.333s-53.333-23.925-53.333-53.333 23.925-53.333 53.333-53.333 53.333 23.925 53.333 53.333zm-16 0c0-20.586-16.747-37.333-37.333-37.333s-37.333 16.747-37.333 37.333 16.747 37.333 37.333 37.333 37.333-16.747 37.333-37.333z" fill="#7dc144" fill-opacity="1" data-original-color="#000000ff" stroke="none" stroke-opacity="1"></path></g></svg>