<svg xmlns="http://www.w3.org/2000/svg" xmlns:svg="http://www.w3.org/2000/svg" xmlns:xlink="http://www.w3.org/1999/xlink" xmlns:svgjs="http://svgjs.dev/svgjs" id="svg9" xml:space="preserve" width="300" height="300" viewBox="0 0 682.66669 682.66669"><g width="100%" height="100%" transform="matrix(1,0,0,1,0,0)"><defs id="defs13"><clipPath clipPathUnits="userSpaceOnUse" id="clipPath23"><path d="M 0,512 H 512 V 0 H 0 Z" id="path21" fill="#7dc144" fill-opacity="1" data-original-color="#000000ff" stroke="none" stroke-opacity="1"></path></clipPath></defs><g id="g15" transform="matrix(1.3333333,0,0,-1.3333333,0,682.66667)"><g id="g17"><g id="g19" clip-path="url(#clipPath23)"><g id="g25" transform="translate(255.9921,502)"><path d="m 0,0 208.008,-65.168 v -175.021 c 0,-122.947 -87.265,-228.593 -208,-251.811 v 0 0 c -120.735,23.218 -208,128.864 -208,251.811 V -65.168 L 0.016,0" style="stroke-linecap: round; stroke-linejoin: round; stroke-miterlimit: 10; stroke-dasharray: none;" id="path27" fill="none" fill-opacity="1" stroke="#7dc144" stroke-opacity="1" data-original-stroke-color="#000000ff" stroke-width="20" data-original-stroke-width="20"></path></g><g id="g29" transform="translate(384.6779,168.0953)"><path d="m 0,0 c 14.939,28.152 23.322,60.128 23.322,93.716 v 133.881 l -152,47.621 -152,-47.621 V 93.716 c 0,-92.299 63.302,-172.421 152,-194.489 25.879,6.439 49.596,17.819 70.21,33.003" style="stroke-linecap: round; stroke-linejoin: round; stroke-miterlimit: 10; stroke-dasharray: none;" id="path31" fill="none" fill-opacity="1" stroke="#7dc144" stroke-opacity="1" data-original-stroke-color="#000000ff" stroke-width="20" data-original-stroke-width="20"></path></g><g id="g33" transform="translate(237.8359,190.7437)"><path d="M 0,0 -66.964,66.964 -33.023,100.906 0,67.882 l 69.351,69.351 33.941,-33.941 z" style="stroke-linecap: round; stroke-linejoin: round; stroke-miterlimit: 10; stroke-dasharray: none;" id="path35" fill="none" fill-opacity="1" stroke="#7dc144" stroke-opacity="1" data-original-stroke-color="#000000ff" stroke-width="20" data-original-stroke-width="20"></path></g><g id="g37" transform="translate(359.2185,130.8982)"><path d="M 0,0 V 0" style="stroke-linecap: round; stroke-linejoin: round; stroke-miterlimit: 10; stroke-dasharray: none;" id="path39" fill="none" fill-opacity="1" stroke="#7dc144" stroke-opacity="1" data-original-stroke-color="#000000ff" stroke-width="20" data-original-stroke-width="20"></path></g></g></g></g></g></svg>