<svg xmlns="http://www.w3.org/2000/svg" xmlns:xlink="http://www.w3.org/1999/xlink" xmlns:svgjs="http://svgjs.dev/svgjs" height="300" viewBox="0 0 64 64" width="300"><g width="100%" height="100%" transform="matrix(1,0,0,1,0,0)"><g id="Engineering-4" data-name="Engineering"><path d="m24 49.129a.984.984 0 0 1 -.444-.1 19.006 19.006 0 0 1 0-34.048 1 1 0 1 1 .89 1.791 17.006 17.006 0 0 0 0 30.466 1 1 0 0 1 -.446 1.9z" fill="#84c14c" fill-opacity="1" data-original-color="#000000ff" stroke="none" stroke-opacity="1"></path><path d="m40.713 15.112a1 1 0 1 0 -.918 1.776 17.053 17.053 0 0 1 5.167 4.112h-1.962a1 1 0 0 0 -1 1v1h-.586l-2.707-2.707a1 1 0 0 0 -.707-.293h-2v-.529a6.005 6.005 0 0 0 -1.595-9.971 1 1 0 0 0 -1.405.91v4.176l-1 1-1-1v-4.176a1 1 0 0 0 -1.4-.91 6.005 6.005 0 0 0 -1.6 9.971v3.529h-3a2.987 2.987 0 0 0 -2.22 5 2.954 2.954 0 0 0 0 4 2.954 2.954 0 0 0 0 4 2.987 2.987 0 0 0 2.22 5h3v3.529a6.005 6.005 0 0 0 1.6 9.971 1 1 0 0 0 1.4-.91v-4.176l1-1 1 1v4.176a1 1 0 0 0 1.405.914 6.005 6.005 0 0 0 1.595-9.975v-3.529h6v1a1 1 0 0 0 1 1h1.962a17.037 17.037 0 0 1 -5.162 4.112 1 1 0 0 0 .918 1.777 19.007 19.007 0 0 0 0-33.777zm-3.127 6.888 1 1h-2.586v-1zm-7.986-3.8a4 4 0 0 1 -.6-5.845v2.645a1 1 0 0 0 .293.707l2 2a1 1 0 0 0 1.414 0l2-2a1 1 0 0 0 .293-.707v-2.644a4 4 0 0 1 -.6 5.845 1 1 0 0 0 -.4.8v4h-4v-4.001a1 1 0 0 0 -.4-.8zm4.8 27.6a4 4 0 0 1 .6 5.845v-2.645a1 1 0 0 0 -.293-.707l-2-2a1 1 0 0 0 -1.414 0l-2 2a1 1 0 0 0 -.293.707v2.644a4 4 0 0 1 .6-5.845 1 1 0 0 0 .4-.799v-4h4v4a1 1 0 0 0 .4.8zm-9.4-6.8a1 1 0 0 1 0-2h2a1 1 0 0 0 0-2h-2a1 1 0 0 1 0-2h2a1 1 0 0 0 0-2h-2a1 1 0 0 1 0-2h2a1 1 0 0 0 0-2h-2a1 1 0 0 1 0-2h17v14zm19 2v-18h2.428a17.033 17.033 0 0 1 0 18z" fill="#84c14c" fill-opacity="1" data-original-color="#000000ff" stroke="none" stroke-opacity="1"></path><path d="m48.678 13.322h2v2h-2z" transform="matrix(.707 -.707 .707 .707 4.423 39.322)" fill="#84c14c" fill-opacity="1" data-original-color="#000000ff" stroke="none" stroke-opacity="1"></path><path d="m56 31h2v2h-2z" fill="#84c14c" fill-opacity="1" data-original-color="#000000ff" stroke="none" stroke-opacity="1"></path><path d="m61 27h-3.482a26.1 26.1 0 0 0 -3.94-9.506l2.46-2.468a1 1 0 0 0 0-1.413l-5.65-5.65a1 1 0 0 0 -1.413 0l-2.468 2.46a26.086 26.086 0 0 0 -9.507-3.941v-3.482a1 1 0 0 0 -1-1h-8a1 1 0 0 0 -1 1v3.482a26.086 26.086 0 0 0 -9.506 3.94l-2.468-2.46a1 1 0 0 0 -1.413 0l-5.65 5.65a1 1 0 0 0 0 1.413l2.46 2.468a26.1 26.1 0 0 0 -3.941 9.507h-3.482a1 1 0 0 0 -1 1v8a1 1 0 0 0 1 1h3.482a26.083 26.083 0 0 0 3.94 9.506l-2.46 2.468a1 1 0 0 0 0 1.413l5.65 5.65a1 1 0 0 0 1.413 0l2.468-2.46a26.086 26.086 0 0 0 9.507 3.941v3.482a1 1 0 0 0 1 1h8a1 1 0 0 0 1-1v-3.482a26.086 26.086 0 0 0 9.506-3.94l2.468 2.46a1 1 0 0 0 1.413 0l5.65-5.65a1 1 0 0 0 0-1.413l-2.46-2.468a26.083 26.083 0 0 0 3.941-9.507h3.482a1 1 0 0 0 1-1v-8a1 1 0 0 0 -1-1zm-1 8h-3.32a1 1 0 0 0 -.988.841 24.027 24.027 0 0 1 -4.222 10.194 1 1 0 0 0 .1 1.291l2.345 2.353-4.238 4.238-2.353-2.345a1 1 0 0 0 -1.291-.1 24.028 24.028 0 0 1 -10.194 4.224 1 1 0 0 0 -.839.984v3.32h-6v-3.32a1 1 0 0 0 -.841-.987 24.028 24.028 0 0 1 -10.194-4.224 1 1 0 0 0 -1.291.1l-2.353 2.345-4.238-4.238 2.345-2.353a1 1 0 0 0 .1-1.291 24.027 24.027 0 0 1 -4.22-10.191 1 1 0 0 0 -.988-.841h-3.32v-6h3.32a1 1 0 0 0 .988-.841 24.03 24.03 0 0 1 4.222-10.194 1 1 0 0 0 -.1-1.291l-2.345-2.353 4.238-4.238 2.353 2.345a1 1 0 0 0 1.291.1 24.033 24.033 0 0 1 10.192-4.221 1 1 0 0 0 .841-.987v-3.32h6v3.32a1 1 0 0 0 .841.987 24.033 24.033 0 0 1 10.194 4.224 1 1 0 0 0 1.291-.1l2.353-2.345 4.238 4.238-2.345 2.353a1 1 0 0 0 -.1 1.291 24.03 24.03 0 0 1 4.222 10.194 1 1 0 0 0 .986.838h3.32z" fill="#84c14c" fill-opacity="1" data-original-color="#000000ff" stroke="none" stroke-opacity="1"></path><path d="m48.678 48.678h2v2h-2z" transform="matrix(.707 -.707 .707 .707 -20.577 49.678)" fill="#84c14c" fill-opacity="1" data-original-color="#000000ff" stroke="none" stroke-opacity="1"></path><path d="m31 56h2v2h-2z" fill="#84c14c" fill-opacity="1" data-original-color="#000000ff" stroke="none" stroke-opacity="1"></path><path d="m13.322 48.678h2v2h-2z" transform="matrix(.707 -.707 .707 .707 -30.933 24.678)" fill="#84c14c" fill-opacity="1" data-original-color="#000000ff" stroke="none" stroke-opacity="1"></path><path d="m6 31h2v2h-2z" fill="#84c14c" fill-opacity="1" data-original-color="#000000ff" stroke="none" stroke-opacity="1"></path><path d="m13.322 13.322h2v2h-2z" transform="matrix(.707 -.707 .707 .707 -5.932 14.322)" fill="#84c14c" fill-opacity="1" data-original-color="#000000ff" stroke="none" stroke-opacity="1"></path><path d="m31 5h2v2h-2z" fill="#84c14c" fill-opacity="1" data-original-color="#000000ff" stroke="none" stroke-opacity="1"></path></g></g></svg>