<svg xmlns="http://www.w3.org/2000/svg" xmlns:svg="http://www.w3.org/2000/svg" xmlns:xlink="http://www.w3.org/1999/xlink" xmlns:svgjs="http://svgjs.dev/svgjs" id="svg1500" xml:space="preserve" width="300" height="300" viewBox="0 0 682.66669 682.66669"><g width="100%" height="100%" transform="matrix(1,0,0,1,0,0)"><defs id="defs1504"><clipPath clipPathUnits="userSpaceOnUse" id="clipPath1514"><path d="M 0,512 H 512 V 0 H 0 Z" id="path1512" fill="#7dc144" fill-opacity="1" data-original-color="#000000ff" stroke="none" stroke-opacity="1"></path></clipPath></defs><g id="g1506" transform="matrix(1.3333333,0,0,-1.3333333,0,682.66667)"><g id="g1508"><g id="g1510" clip-path="url(#clipPath1514)"><g id="g1516" transform="translate(134.7998,281.791)"><path d="M 0,0 H -103.404 C -115.221,0 -124.8,-9.579 -124.8,-21.396 v -229 c 0,-11.816 9.579,-21.395 21.396,-21.395 h 229 c 11.816,0 21.395,9.579 21.395,21.395 v 103.405" style="stroke-linecap: round; stroke-linejoin: round; stroke-miterlimit: 10; stroke-dasharray: none;" id="path1518" fill="none" fill-opacity="1" stroke="#7dc144" stroke-opacity="1" data-original-stroke-color="#000000ff" stroke-width="20" data-original-stroke-width="20"></path></g><g id="g1520" transform="translate(502,260.3701)"><path d="m 0,0 v -102.173 c 0,-11.817 -9.579,-21.396 -21.396,-21.396 h -322.408 c -11.816,0 -21.395,9.579 -21.395,21.396 v 322.407 c 0,11.817 9.579,21.396 21.395,21.396 H -21.396 C -9.579,241.63 0,232.051 0,220.234 V 90.447" style="stroke-linecap: round; stroke-linejoin: round; stroke-miterlimit: 10; stroke-dasharray: none;" id="path1522" fill="none" fill-opacity="1" stroke="#7dc144" stroke-opacity="1" data-original-stroke-color="#000000ff" stroke-width="20" data-original-stroke-width="20"></path></g><g id="g1524" transform="translate(502,305.7769)"><path d="M 0,0 V 0" style="stroke-linecap: round; stroke-linejoin: round; stroke-miterlimit: 10; stroke-dasharray: none;" id="path1526" fill="none" fill-opacity="1" stroke="#7dc144" stroke-opacity="1" data-original-stroke-color="#000000ff" stroke-width="20" data-original-stroke-width="20"></path></g><g id="g1528" transform="translate(227.3066,270.1499)"><path d="m 0,0 41.882,-41.882 87.288,87.288 28.12,-28.12 18.335,116.456 -116.457,-18.334 28.12,-28.12 z" style="stroke-linecap: round; stroke-linejoin: round; stroke-miterlimit: 10; stroke-dasharray: none;" id="path1530" fill="none" fill-opacity="1" stroke="#7dc144" stroke-opacity="1" data-original-stroke-color="#000000ff" stroke-width="20" data-original-stroke-width="20"></path></g><g id="g1532" transform="translate(150,145.8955)"><path d="M 0,0 75.052,75.052" style="stroke-linecap: round; stroke-linejoin: round; stroke-miterlimit: 10; stroke-dasharray: none;" id="path1534" fill="none" fill-opacity="1" stroke="#7dc144" stroke-opacity="1" data-original-stroke-color="#000000ff" stroke-width="20" data-original-stroke-width="20"></path></g><g id="g1536" transform="translate(431,431)"><path d="M 0,0 59.499,59.499" style="stroke-linecap: round; stroke-linejoin: round; stroke-miterlimit: 10; stroke-dasharray: none;" id="path1538" fill="none" fill-opacity="1" stroke="#7dc144" stroke-opacity="1" data-original-stroke-color="#000000ff" stroke-width="20" data-original-stroke-width="20"></path></g></g></g></g></g></svg>