<svg xmlns="http://www.w3.org/2000/svg" xmlns:xlink="http://www.w3.org/1999/xlink" xmlns:svgjs="http://svgjs.dev/svgjs" id="Layer_1" viewBox="0 0 512 512" width="300" height="300"><g width="100%" height="100%" transform="matrix(1,0,0,1,0,0)"><path d="m32.21 243.36c3.45-49.96 23.74-97.49 57.31-134.67l-22.97 1.84c-4.38.36-8.26-2.93-8.61-7.33s2.93-8.26 7.33-8.61l44.15-3.54c2.34-.19 4.64.66 6.3 2.32s2.5 3.96 2.32 6.3l-3.54 44.15c-.34 4.19-3.84 7.36-7.97 7.36-.21 0-.43-.01-.65-.03-4.4-.35-7.69-4.21-7.33-8.61l1.76-21.91c-30.53 34.34-48.97 77.99-52.14 123.84-.29 4.22-3.81 7.45-7.97 7.45-.19 0-.37-.01-.56-.02-4.41-.31-7.74-4.13-7.43-8.54zm209.22 223.5c-45.85-3.17-89.5-21.6-123.84-52.14l21.91 1.76c4.41.36 8.26-2.93 8.61-7.33s-2.93-8.26-7.33-8.61l-44.15-3.54c-2.33-.2-4.64.66-6.3 2.32s-2.5 3.96-2.32 6.3l3.54 44.15c.34 4.19 3.84 7.36 7.97 7.36.21 0 .43-.01.65-.03 4.4-.35 7.69-4.21 7.33-8.61l-1.84-22.97c37.17 33.57 84.7 53.86 134.67 57.31.19.01.37.02.56.02 4.17 0 7.68-3.23 7.97-7.45.31-4.41-3.02-8.23-7.43-8.54zm230.94-200.7c-4.41-.32-8.23 3.02-8.53 7.43-3.17 45.85-21.61 89.5-52.14 123.84l1.76-21.91c.35-4.4-2.93-8.26-7.33-8.61-4.41-.36-8.26 2.93-8.61 7.33l-3.54 44.15c-.19 2.34.66 4.64 2.32 6.3 1.51 1.51 3.54 2.34 5.66 2.34.21 0 .43-.01.64-.03l44.15-3.54c4.4-.35 7.69-4.21 7.33-8.61-.35-4.4-4.22-7.7-8.61-7.33l-22.97 1.84c33.57-37.17 53.86-84.7 57.31-134.67.29-4.4-3.04-8.22-7.44-8.53zm-201.8-214.96c45.85 3.17 89.5 21.6 123.84 52.14l-21.91-1.76c-4.4-.35-8.26 2.93-8.61 7.33s2.93 8.26 7.33 8.61l44.15 3.54c.21.02.43.03.64.03 2.11 0 4.15-.84 5.66-2.34 1.66-1.66 2.5-3.96 2.32-6.3l-3.54-44.15c-.35-4.4-4.24-7.69-8.61-7.33-4.4.35-7.69 4.21-7.33 8.61l1.84 22.97c-37.17-33.57-84.7-53.86-134.67-57.31-4.41-.31-8.23 3.02-8.53 7.43-.32 4.4 3.01 8.22 7.42 8.53zm-132.65 2.41c0-27.61 22.46-50.06 50.06-50.06s50.07 22.45 50.07 50.06-22.46 50.06-50.06 50.06-50.07-22.46-50.07-50.06zm16 0c0 18.78 15.28 34.06 34.06 34.06s34.06-15.28 34.06-34.06-15.28-34.06-34.06-34.06c-18.78-.01-34.06 15.27-34.06 34.06zm235.92 184.42v42c0 4.42-3.58 8-8 8h-14.7c-2.65 10.22-6.69 19.96-12.05 29.07l10.4 10.4c1.5 1.5 2.34 3.54 2.34 5.66s-.84 4.16-2.34 5.66l-29.7 29.7c-3.12 3.12-8.19 3.12-11.31 0l-10.4-10.4c-9.12 5.36-18.85 9.4-29.08 12.05v14.7c0 4.42-3.58 8-8 8h-42c-4.42 0-8-3.58-8-8v-14.7c-10.22-2.65-19.95-6.69-29.07-12.05l-10.4 10.4c-1.5 1.5-3.54 2.34-5.66 2.34s-4.16-.84-5.66-2.34l-29.7-29.7c-3.12-3.12-3.12-8.19 0-11.31l10.4-10.4c-5.36-9.12-9.4-18.85-12.05-29.07h-14.7c-4.42 0-8-3.58-8-8v-42c0-4.42 3.58-8 8-8h14.7c2.65-10.22 6.69-19.95 12.05-29.07l-10.4-10.4c-3.12-3.12-3.12-8.19 0-11.31l29.7-29.7c1.5-1.5 3.54-2.34 5.66-2.34s4.16.84 5.66 2.34l10.4 10.4c9.12-5.36 18.85-9.4 29.08-12.05v-14.7c0-4.42 3.58-8 8-8h42c4.42 0 8 3.58 8 8v14.7c10.22 2.65 19.96 6.69 29.08 12.05l10.4-10.4c1.5-1.5 3.54-2.34 5.66-2.34s4.16.84 5.66 2.34l29.7 29.7c3.12 3.12 3.12 8.19 0 11.31l-10.4 10.4c5.36 9.12 9.4 18.85 12.05 29.08h14.7c4.4-.02 7.98 3.56 7.98 7.98zm-16 8h-13.07c-3.82 0-7.1-2.69-7.85-6.44-2.53-12.68-7.46-24.57-14.65-35.35-2.12-3.17-1.7-7.4 1-10.1l9.25-9.25-18.38-18.39-9.25 9.25c-2.7 2.7-6.92 3.12-10.1 1-10.78-7.2-22.68-12.13-35.35-14.65-3.74-.75-6.44-4.03-6.44-7.85v-13.07h-26v13.07c0 3.81-2.69 7.1-6.44 7.85-12.68 2.53-24.57 7.46-35.35 14.65-3.17 2.12-7.4 1.7-10.1-1l-9.25-9.25-18.39 18.39 9.25 9.25c2.7 2.7 3.11 6.92 1 10.1-7.2 10.79-12.13 22.68-14.65 35.35-.75 3.74-4.03 6.44-7.85 6.44h-13.07v26h13.07c3.82 0 7.1 2.69 7.85 6.44 2.53 12.68 7.46 24.57 14.65 35.35 2.12 3.17 1.7 7.4-1 10.1l-9.25 9.25 18.38 18.39 9.25-9.25c2.7-2.7 6.92-3.12 10.1-1 10.79 7.2 22.68 12.13 35.35 14.65 3.74.75 6.44 4.03 6.44 7.85v13.07h26v-13.08c0-3.81 2.69-7.1 6.44-7.85 12.68-2.53 24.57-7.46 35.35-14.65 3.17-2.12 7.4-1.7 10.1 1l9.25 9.25 18.39-18.39-9.25-9.25c-2.7-2.7-3.11-6.92-1-10.1 7.2-10.78 12.13-22.68 14.65-35.35.75-3.74 4.03-6.44 7.85-6.44h13.07zm-44.4 13c0 40.49-32.94 73.44-73.44 73.44s-73.44-32.94-73.44-73.44c0-40.49 32.94-73.44 73.44-73.44s73.44 32.94 73.44 73.44zm-16 0c0-31.67-25.77-57.44-57.44-57.44s-57.44 25.77-57.44 57.44 25.77 57.44 57.44 57.44 57.44-25.77 57.44-57.44zm-217.28 98.95-41.58 24.01c-1.24.71-2.62 1.07-4 1.07s-2.76-.36-4-1.07l-41.58-24.01c-2.48-1.43-4-4.07-4-6.93v-48.01c0-2.86 1.52-5.5 4-6.93l41.58-24.01c2.47-1.43 5.53-1.43 8 0l41.58 24.01c2.48 1.43 4 4.07 4 6.93v48.01c0 2.86-1.53 5.5-4 6.93zm-12-50.32-33.58-19.39-33.58 19.39v38.77l33.58 19.39 33.58-19.39zm288.36 188.8c1.43 2.48 1.43 5.52 0 8s-4.07 4-6.93 4h-83.16c-2.86 0-5.5-1.52-6.93-4s-1.43-5.52 0-8l41.58-72.02c1.43-2.48 4.07-4 6.93-4s5.5 1.52 6.93 4zm-20.78-4-27.72-48.02-27.72 48.02zm159.26-336.79v70.68c0 7.85-6.39 14.24-14.24 14.24h-70.68c-7.85 0-14.24-6.39-14.24-14.24v-70.68c0-7.85 6.39-14.24 14.24-14.24h70.68c7.85 0 14.24 6.39 14.24 14.24zm-16 1.76h-67.16v67.16h67.16zm-213.97 74.98-36 36.34-14.15-13.79c-3.16-3.08-8.23-3.02-11.31.14s-3.02 8.23.14 11.31l19.83 19.33c1.55 1.52 3.57 2.27 5.58 2.27 2.06 0 4.12-.79 5.68-2.37l41.59-41.98c3.11-3.14 3.09-8.2-.05-11.31-3.14-3.1-8.2-3.08-11.31.06z" fill="#84c14c" fill-opacity="1" data-original-color="#000000ff" stroke="none" stroke-opacity="1"></path></g></svg>