<svg xmlns="http://www.w3.org/2000/svg" xmlns:svg="http://www.w3.org/2000/svg" xmlns:xlink="http://www.w3.org/1999/xlink" xmlns:svgjs="http://svgjs.dev/svgjs" id="svg6429" width="300" height="300" viewBox="0 0 682.66669 682.66669"><g width="100%" height="100%" transform="matrix(1,0,0,1,0,0)"><defs id="defs6433"><clipPath clipPathUnits="userSpaceOnUse" id="clipPath6443"><path d="M 0,512 H 512 V 0 H 0 Z" id="path6441" fill="#84c14c" fill-opacity="1" data-original-color="#000000ff" stroke="none" stroke-opacity="1"></path></clipPath></defs><mask id="custom"><rect id="bg" x="0" y="0" width="100%" height="100%" fill="white"></rect><g transform="matrix(1.3333333,0,0,-1.3333333,0,682.66667)"></g></mask><g mask="url(#custom)"><g id="g6435" transform="matrix(1.3333333,0,0,-1.3333333,0,682.66667)"><g id="g6437"><g id="g6439" clip-path="url(#clipPath6443)"><g id="g6445" transform="translate(38.813,217.8223)"><path d="m 0,0 h 28.484 c 16.71,0 30.382,-13.673 30.382,-30.383 v -133.061 c 0,-16.71 -13.672,-30.382 -30.382,-30.382 H 0 c -16.71,0 -30.382,13.672 -30.382,30.382 V -30.383 C -30.382,-13.673 -16.71,0 0,0 Z" style="stroke-linecap: round; stroke-linejoin: round; stroke-miterlimit: 10; stroke-dasharray: 360, 30; stroke-dashoffset: 0;" id="path6447" fill="none" fill-opacity="1" stroke="#84c14c" stroke-opacity="1" data-original-stroke-color="#000000ff" stroke-width="15" data-original-stroke-width="15"></path></g><g id="g6449" transform="translate(206.5923,135.5166)"><path d="m 0,0 49.619,-49.629 c 4.747,-4.737 10.962,-7.115 17.176,-7.115 6.346,0 12.692,2.479 17.464,7.417 9.27,9.592 8.748,24.998 -0.684,34.43 L 68.678,0 28.499,40.18 c -5.376,5.376 -12.667,8.395 -20.27,8.395 h -41.925 -89.813 c -6.681,0 -12.147,-5.466 -12.147,-12.146 V 12.146" style="stroke-linecap: round; stroke-linejoin: round; stroke-miterlimit: 10; stroke-dasharray: none;" id="path6451" fill="none" fill-opacity="1" stroke="#84c14c" stroke-opacity="1" data-original-stroke-color="#000000ff" stroke-width="15" data-original-stroke-width="15"></path></g><g id="g6453" transform="translate(97.6392,76.5664)"><path d="m 0,0 34.17,-5.9 c 15.617,-2.698 30.77,-7.602 45.005,-14.567 l 57.336,-28.052 c 4.34,-2.124 8.541,-4.519 12.602,-7.136 22.672,-14.612 51.981,-14.864 75.018,-0.202 l 171.456,86.933 c 6.388,4.065 10.257,11.112 10.257,18.684 0,13.393 -11.797,23.721 -25.073,21.951 L 201.041,26.469" style="stroke-linecap: round; stroke-linejoin: round; stroke-miterlimit: 10; stroke-dasharray: 400, 30; stroke-dashoffset: 0;" id="path6455" fill="none" fill-opacity="1" stroke="#84c14c" stroke-opacity="1" data-original-stroke-color="#000000ff" stroke-width="15" data-original-stroke-width="15"></path></g><g id="g6457" transform="translate(71.0229,71.8584)"><path d="m 0,0 c 0,-9.923 -8.044,-17.968 -17.968,-17.968 -9.924,0 -17.969,8.045 -17.969,17.968 0,9.924 8.045,17.969 17.969,17.969 C -8.044,17.969 0,9.924 0,0 Z" style="stroke-linecap: round; stroke-linejoin: round; stroke-miterlimit: 10; stroke-dasharray: 62, 30; stroke-dashoffset: 0;" id="path6459" fill="none" fill-opacity="1" stroke="#84c14c" stroke-opacity="1" data-original-stroke-color="#000000ff" stroke-width="15" data-original-stroke-width="15"></path></g><g id="g6461" transform="translate(340.9302,502.207)"><path d="m 0,0 -35.365,-6.235 c -4.227,-0.746 -7.05,-4.778 -6.304,-9.005 l 7.671,-43.511 c -7.099,-3.142 -13.794,-7.028 -19.987,-11.562 L -87.846,-41.9 c -3.288,2.759 -8.191,2.331 -10.95,-0.958 l -23.083,-27.509 c -2.76,-3.288 -2.33,-8.192 0.958,-10.95 l 33.847,-28.402 c -3.373,-6.855 -6.037,-14.121 -7.899,-21.703 h -44.185 c -4.292,0 -7.772,-3.479 -7.772,-7.772 v -35.91 c 0,-4.293 3.48,-7.774 7.772,-7.774 h 44.185 c 1.862,-7.582 4.526,-14.848 7.899,-21.702 l -33.847,-28.401 c -3.288,-2.76 -3.718,-7.663 -0.958,-10.952 l 23.083,-27.508 c 2.759,-3.288 7.662,-3.717 10.95,-0.958 l 33.861,28.413 c 6.193,-4.535 12.888,-8.421 19.987,-11.563 l -7.671,-43.511 c -0.746,-4.227 2.077,-8.258 6.304,-9.003 L 0,-314.3 c 4.228,-0.745 8.259,2.078 9.004,6.306 l 7.677,43.535 c 7.84,0.519 15.452,1.874 22.744,3.983 l 22.089,-38.259 c 2.147,-3.718 6.901,-4.992 10.618,-2.846 l 31.099,17.956 c 3.718,2.146 4.992,6.899 2.845,10.617 l -22.103,38.284 c 5.555,5.335 10.538,11.261 14.848,17.677 l 41.529,-15.115 c 4.034,-1.469 8.494,0.611 9.962,4.645 l 12.282,33.745 c 1.468,4.034 -0.612,8.495 -4.645,9.962 l -41.533,15.118 c 0.404,3.792 0.617,7.642 0.617,11.543 0,3.9 -0.213,7.75 -0.617,11.543 l 41.533,15.117 c 4.033,1.468 6.113,5.927 4.645,9.962 l -12.282,33.744 c -1.468,4.034 -5.928,6.114 -9.962,4.646 L 98.821,-97.252 c -4.31,6.416 -9.293,12.341 -14.848,17.677 l 22.103,38.283 c 2.147,3.718 0.873,8.472 -2.845,10.618 l -31.099,17.955 c -3.717,2.147 -8.471,0.873 -10.618,-2.844 L 39.425,-53.824 c -7.292,2.11 -14.904,3.466 -22.744,3.984 L 9.004,-6.305 C 8.259,-2.077 4.228,0.745 0,0 Z" style="stroke-linecap: round; stroke-linejoin: round; stroke-miterlimit: 10; stroke-dasharray: none;" id="path6463" fill="none" fill-opacity="1" stroke="#84c14c" stroke-opacity="1" data-original-stroke-color="#000000ff" stroke-width="15" data-original-stroke-width="15"></path></g><g id="g6465" transform="translate(414.2295,388.5625)"><path d="m 0,0 -85.16,-85.16 c -2.466,-2.467 -6.465,-2.467 -8.931,0 l -36.373,36.373" style="stroke-linecap: round; stroke-linejoin: round; stroke-miterlimit: 10; stroke-dasharray: 670, 30; stroke-dashoffset: 0;" id="path6467" fill="none" fill-opacity="1" stroke="#84c14c" stroke-opacity="1" data-original-stroke-color="#000000ff" stroke-width="15" data-original-stroke-width="15"></path></g></g></g></g></g></g></svg>