<svg xmlns="http://www.w3.org/2000/svg" xmlns:xlink="http://www.w3.org/1999/xlink" xmlns:svgjs="http://svgjs.dev/svgjs" clip-rule="evenodd" fill-rule="evenodd" stroke-linejoin="round" stroke-miterlimit="2" viewBox="0 0 510 510" width="300" height="300"><g width="100%" height="100%" transform="matrix(1,0,0,1,0,0)"><path d="m318.089 484.583v3.034c0 8.467-6.916 15.383-15.382 15.383h-29.918c-8.436 0-15.383-6.916-15.383-15.383v-129.212c0-8.467 6.947-15.383 15.383-15.383h29.918c8.193 0 14.934 6.476 15.361 14.567 5.014-.447 8.471-2.738 10.955-6.326 12.055-17.444 10.983-17.111 26.759-27.417 21.105-13.803 20.282-19.464 28.317-54.384.48-2.088 1.777-3.895 3.601-5.018 1.824-1.124 4.023-1.468 6.103-.957 17.89 4.393 25.805 17.853 27.573 33.781 1.585 14.288-2.234 30.54-7.199 42.301h53.421c14.15 0 25.727 11.561 25.727 25.712 0 4.72-1.292 9.156-3.54 12.971 7.87 4.407 13.215 12.831 13.215 22.454 0 8.545-4.213 16.144-10.667 20.825 2.885 4.155 4.579 9.191 4.579 14.601 0 12.426-8.915 22.867-20.67 25.227 1.366 3.134 2.124 6.588 2.124 10.213 0 14.131-11.56 25.712-25.712 25.712h-77.847c-25.415 0-40.858-7.05-56.718-12.701zm0-110.956v94.078c16.208 5.505 30.946 13.579 56.718 13.579h77.847c5.346 0 9.712-4.374 9.712-9.712 0-5.346-4.366-9.713-9.712-9.713h-31.273c-4.415 0-8-3.585-8-8s3.585-8 8-8h49.819c5.347 0 9.712-4.379 9.712-9.727 0-5.338-4.366-9.713-9.712-9.713h-49.819c-4.415 0-8-3.585-8-8s3.585-8 8-8h55.906c5.346 0 9.713-4.367 9.713-9.713s-4.367-9.712-9.713-9.712h-55.906c-4.415 0-8-3.585-8-8s3.585-8 8-8h46.217c5.347 0 9.727-4.373 9.727-9.713 0-5.348-4.38-9.712-9.727-9.712h-67.04c-3.131 0-5.974-1.827-7.276-4.674s-.823-6.192 1.225-8.56c5.859-6.773 12.798-26.792 10.966-43.303-.728-6.56-2.995-12.604-7.963-16.471-7.634 33.222-9.836 39.545-32.97 54.675l-.003.002c-13.245 8.653-12.234 8.481-22.354 23.125l-.003.005c-5.369 7.756-12.858 12.75-24.091 13.259zm-44.683 113.373h28.683v-127.978l-28.683-.001zm-27.829-323.19c-9.551-4.903-20.152-8.155-31.469-9.344-49.153-5.177-93.192 30.473-98.369 79.627-2.066 19.649 2.392 38.471 11.618 54.325 2.221 3.816.926 8.718-2.89 10.938-3.816 2.221-8.718.926-10.938-2.89-10.878-18.692-16.138-40.882-13.702-64.048 6.102-57.941 58.014-99.966 115.956-93.865 14.71 1.547 28.394 6.051 40.524 12.858l-.927-3.25c-1.212-4.245 1.251-8.676 5.496-9.888 4.246-1.212 8.677 1.251 9.889 5.497l7.126 24.964c.675 2.365.224 4.909-1.221 6.898-1.446 1.99-3.727 3.204-6.185 3.292l-25.945.933c-4.412.159-8.123-3.295-8.282-7.707-.159-4.413 3.295-8.124 7.707-8.282zm-92.41 171.705.928 3.251c1.212 4.246-1.251 8.676-5.497 9.888s-8.677-1.251-9.888-5.497l-7.126-24.964c-.675-2.365-.225-4.909 1.221-6.898 1.446-1.99 3.726-3.204 6.184-3.292l25.945-.933c4.413-.159 8.124 3.295 8.283 7.707.158 4.413-3.295 8.124-7.708 8.283l-1.61.057c9.552 4.901 20.155 8.153 31.468 9.345 49.153 5.176 93.192-30.475 98.368-79.628 2.066-19.638-2.38-38.468-11.616-54.322-2.223-3.815-.93-8.717 2.885-10.939 3.816-2.223 8.717-.93 10.94 2.885 10.89 18.693 16.14 40.896 13.703 64.051-6.101 57.942-58.014 99.966-115.956 93.865-14.705-1.549-28.392-6.054-40.524-12.859zm88.856 115.527c4.18-1.423 8.728.815 10.151 4.995s-.815 8.728-4.995 10.151c-11.019 3.752-22.433 6.69-34.174 8.737l-6.914 1.208c-.911.16-1.844.16-2.755 0l-6.91-1.208c-108.917-18.988-189.426-114.58-189.426-225.201v-153.404c0-3.2 1.907-6.093 4.848-7.353l189.714-81.32c2.012-.863 4.291-.863 6.303 0l189.714 81.32c2.941 1.26 4.848 4.153 4.848 7.353v153.404c0 4.416-3.585 8-8 8s-8-3.584-8-8v-148.13l-181.714-77.89c-22.171 9.504-154.599 66.268-181.713 77.89v148.13c0 102.88 74.878 191.78 176.174 209.439l5.539.968 5.54-.968c10.917-1.903 21.527-4.634 31.77-8.121zm87.107-114.33c-2.17 3.846-7.053 5.207-10.899 3.038-3.845-2.17-5.206-7.053-3.037-10.899 13.308-23.591 20.855-50.668 20.855-79.127v-114.913l-131.335-56.234-131.288 56.233v114.914c0 77.325 55.682 144.457 131.289 159.186 12.948-2.521 25.312-6.578 36.91-11.959 4.005-1.858 8.766-.115 10.624 3.89s.115 8.766-3.89 10.624c-13.232 6.139-27.368 10.71-42.189 13.455-.963.178-1.951.178-2.914-.001-83.876-15.54-145.83-89.699-145.83-175.195v-120.19c0-3.201 1.908-6.094 4.85-7.354l139.288-59.66c2.011-.861 4.287-.862 6.298 0l139.336 59.66c2.943 1.26 4.851 4.153 4.851 7.354v120.19c0 31.286-8.29 61.054-22.919 86.988zm-170.017-92.839c-3.122-3.122-3.122-8.191 0-11.313 3.122-3.123 8.192-3.123 11.314 0l24.486 24.486 44.135-44.135c3.123-3.122 8.192-3.122 11.314 0s3.122 8.191 0 11.313l-49.792 49.792c-3.124 3.125-8.189 3.125-11.314 0z" fill="#7dc144" fill-opacity="1" data-original-color="#000000ff" stroke="none" stroke-opacity="1"></path></g></svg>