<svg xmlns="http://www.w3.org/2000/svg" xmlns:xlink="http://www.w3.org/1999/xlink" xmlns:svgjs="http://svgjs.dev/svgjs" clip-rule="evenodd" fill-rule="evenodd" height="300" stroke-linejoin="round" stroke-miterlimit="2" viewBox="0 0 64 64" width="300"><g width="100%" height="100%" transform="matrix(1,0,0,1,0,0)"><g><path d="m28.072 27.534c-1.462.297-3.121.466-4.88.466-5.987 0-10.851-4.248-10.851-4.248-.217-.19-.341-.464-.341-.752s.124-.562.341-.752c0 0 4.864-4.248 10.851-4.248 1.467 0 2.865.118 4.137.329-.212-1.272-.329-2.67-.329-4.137 0-5.987 4.248-10.851 4.248-10.851.19-.217.464-.341.752-.341.287 0 .562.124.751.341 0 0 4.249 4.864 4.249 10.851 0 1.467-.118 2.865-.329 4.137 1.272-.212 2.67-.329 4.137-.329 5.987 0 10.851 4.248 10.851 4.248.217.19.341.464.341.752s-.124.562-.341.752c0 0-4.864 4.248-10.851 4.248-1.758 0-3.418-.169-4.879-.466-.068.058-.137.116-.208.171l3.166 26.295h3.779c.553 0 1 .448 1 1v4c0 .552-.447 1-1 1h-21.332c-.553 0-1-.448-1-1v-4c0-.552.447-1 1-1h3.779l3.166-26.295c-.071-.055-.14-.113-.207-.171zm-1.405-7.285c-1.079-.161-2.251-.249-3.475-.249-3.75 0-6.997 1.905-8.552 3 1.555 1.095 4.802 3 8.552 3 1.224 0 2.396-.088 3.475-.249-.426-.824-.667-1.76-.667-2.751s.241-1.926.667-2.751zm8.084-2.582c.161-1.079.249-2.251.249-3.475 0-3.75-1.905-6.996-3-8.552-1.095 1.556-3 4.802-3 8.552 0 1.224.088 2.396.249 3.475.824-.426 1.76-.667 2.751-.667s1.926.241 2.751.667zm2.582 8.084c1.079.161 2.251.249 3.475.249 3.75 0 6.996-1.905 8.552-3-1.556-1.095-4.802-3-8.552-3-1.224 0-2.396.088-3.475.249.426.824.667 1.76.667 2.751s-.241 1.926-.667 2.751zm-.461 28.249-3.043-25.284c-.577.184-1.191.284-1.829.284s-1.252-.1-1.829-.285c-.654 5.434-3.043 25.285-3.043 25.285zm4.794 2h-19.332v2h19.332zm-12.552-35.769c-.008.009-.016.018-.025.026-.675.717-1.089 1.682-1.089 2.743s.414 2.027 1.09 2.743c.008.008.016.017.024.026.223.232.474.438.747.611.009.005.017.011.026.016.613.383 1.337.604 2.113.604s1.5-.221 2.113-.604c.009-.005.017-.011.026-.016.273-.173.524-.379.747-.611.008-.009.016-.018.025-.026.675-.717 1.089-1.682 1.089-2.743s-.414-2.027-1.09-2.743c-.008-.008-.016-.017-.024-.026-.038-.04-.078-.079-.117-.117-.009-.008-.018-.016-.026-.025-.717-.675-1.682-1.089-2.743-1.089s-2.027.414-2.743 1.09c-.008.008-.017.016-.026.024-.04.038-.079.078-.117.117zm-16.114 11.769c4.967 0 9 4.033 9 9s-4.033 9-9 9-9-4.033-9-9 4.033-9 9-9zm0 2c-3.863 0-7 3.137-7 7s3.137 7 7 7 7-3.137 7-7-3.137-7-7-7zm-.895 2.553c.247-.494.848-.694 1.342-.447.494.246.694.848.447 1.341l-1.276 2.553h2.382c.347 0 .668.179.851.474.182.295.198.663.043.973l-2 4c-.247.494-.848.694-1.342.447-.493-.246-.694-.848-.447-1.341l1.277-2.553h-2.382c-.347 0-.668-.179-.851-.474-.182-.295-.198-.663-.043-.973zm38.895-4.553c4.967 0 9 4.033 9 9s-4.033 9-9 9-9-4.033-9-9 4.033-9 9-9zm0 2c-3.863 0-7 3.137-7 7s3.137 7 7 7 7-3.137 7-7-3.137-7-7-7zm-.895 2.553c.247-.494.848-.694 1.342-.447.494.246.694.848.447 1.341l-1.276 2.553h2.382c.347 0 .668.179.851.474.182.295.198.663.043.973l-2 4c-.247.494-.848.694-1.342.447-.493-.246-.694-.848-.447-1.341l1.277-2.553h-2.382c-.347 0-.668-.179-.851-.474-.182-.295-.198-.663-.043-.973z" fill="#84c14c" fill-opacity="1" data-original-color="#000000ff" stroke="none" stroke-opacity="1"></path></g></g></svg>