<svg xmlns="http://www.w3.org/2000/svg" xmlns:xlink="http://www.w3.org/1999/xlink" xmlns:svgjs="http://svgjs.dev/svgjs" id="Icons" viewBox="0 0 60 60" width="300" height="300"><g width="100%" height="100%" transform="matrix(1,0,0,1,0,0)"><title></title><path d="M58.2,25.193,54,23.512a24.734,24.734,0,0,0-2.443-5.884l1.787-4.169a2.672,2.672,0,0,0-.389-2.776c-.533-.64-1.118-1.278-1.736-1.895s-1.255-1.2-1.9-1.74a2.671,2.671,0,0,0-2.775-.386L42.372,8.448a24.775,24.775,0,0,0-5.884-2.443L34.807,1.8A2.677,2.677,0,0,0,32.568.111a29.8,29.8,0,0,0-5.139,0A2.676,2.676,0,0,0,25.193,1.8l-1.681,4.2a24.775,24.775,0,0,0-5.884,2.443L13.459,6.661a2.676,2.676,0,0,0-2.777.388C10.041,7.585,9.4,8.17,8.788,8.786s-1.2,1.257-1.738,1.9a2.669,2.669,0,0,0-.388,2.776l1.786,4.169a24.734,24.734,0,0,0-2.443,5.884L1.8,25.193a2.677,2.677,0,0,0-1.69,2.239C.037,28.257,0,29.121,0,30s.037,1.743.111,2.571A2.676,2.676,0,0,0,1.8,34.807l4.2,1.681a24.734,24.734,0,0,0,2.443,5.884L6.661,46.541a2.676,2.676,0,0,0,.388,2.777c.536.641,1.121,1.279,1.737,1.894s1.257,1.2,1.9,1.738a2.667,2.667,0,0,0,2.776.388l4.169-1.786A24.734,24.734,0,0,0,23.512,54l1.681,4.2a2.677,2.677,0,0,0,2.239,1.69c.825.074,1.689.111,2.568.111s1.743-.037,2.571-.111A2.676,2.676,0,0,0,34.807,58.2L36.488,54a24.734,24.734,0,0,0,5.884-2.443l4.169,1.787a2.676,2.676,0,0,0,2.776-.389c.64-.533,1.278-1.118,1.9-1.736s1.2-1.255,1.74-1.9a2.672,2.672,0,0,0,.386-2.775l-1.786-4.169A24.734,24.734,0,0,0,54,36.488l4.2-1.681h0a2.677,2.677,0,0,0,1.69-2.239C59.963,31.743,60,30.879,60,30s-.037-1.743-.111-2.571A2.676,2.676,0,0,0,58.2,25.193Zm-.3,7.195a.687.687,0,0,1-.44.561l-4.673,1.869a1,1,0,0,0-.6.688,22.728,22.728,0,0,1-2.607,6.278,1,1,0,0,0-.063.91L51.5,47.328a.689.689,0,0,1-.083.707c-.5.6-1.041,1.189-1.618,1.765s-1.169,1.12-1.762,1.615a.691.691,0,0,1-.708.085l-4.634-1.986a.991.991,0,0,0-.91.063,22.728,22.728,0,0,1-6.278,2.607,1,1,0,0,0-.688.6l-1.869,4.672a.687.687,0,0,1-.558.441,27.836,27.836,0,0,1-4.779,0,.688.688,0,0,1-.561-.44l-1.869-4.673a1,1,0,0,0-.688-.6,22.728,22.728,0,0,1-6.278-2.607.994.994,0,0,0-.517-.144.978.978,0,0,0-.393.081L12.672,51.5a.689.689,0,0,1-.708-.084c-.593-.495-1.186-1.039-1.764-1.617s-1.119-1.167-1.615-1.761a.693.693,0,0,1-.085-.709l1.986-4.634a1,1,0,0,0-.063-.91,22.728,22.728,0,0,1-2.607-6.278,1,1,0,0,0-.6-.688L2.545,32.949a.687.687,0,0,1-.441-.558C2.035,31.623,2,30.819,2,30s.035-1.623.1-2.388a.688.688,0,0,1,.44-.561l4.673-1.869a1,1,0,0,0,.6-.688,22.728,22.728,0,0,1,2.607-6.278,1,1,0,0,0,.063-.91L8.5,12.672a.689.689,0,0,1,.084-.708c.495-.593,1.039-1.186,1.617-1.764s1.167-1.119,1.761-1.615a.692.692,0,0,1,.709-.085l4.634,1.986a.994.994,0,0,0,.91-.063,22.728,22.728,0,0,1,6.278-2.607,1,1,0,0,0,.688-.6l1.869-4.672a.687.687,0,0,1,.558-.441,27.836,27.836,0,0,1,4.779,0,.688.688,0,0,1,.561.44l1.869,4.673a1,1,0,0,0,.688.6,22.728,22.728,0,0,1,6.278,2.607.994.994,0,0,0,.91.063L47.328,8.5a.684.684,0,0,1,.707.083c.6.5,1.189,1.041,1.765,1.618s1.12,1.169,1.615,1.762a.691.691,0,0,1,.085.708l-1.986,4.634a1,1,0,0,0,.063.91,22.728,22.728,0,0,1,2.607,6.278,1,1,0,0,0,.6.688l4.672,1.869a.687.687,0,0,1,.441.558c.069.768.1,1.572.1,2.391S57.965,31.623,57.9,32.388Z" fill="#84c14c" fill-opacity="1" data-original-color="#000000ff" stroke="none" stroke-opacity="1"></path><path d="M17,29h2a2,2,0,0,0,2-2V25a2,2,0,0,0-2-2H17a2,2,0,0,0-2,2v2A2,2,0,0,0,17,29Zm0-4h2l0,2H17Z" fill="#84c14c" fill-opacity="1" data-original-color="#000000ff" stroke="none" stroke-opacity="1"></path><path d="M31,23H29a2,2,0,0,0-2,2v2a2,2,0,0,0,2,2h2a2,2,0,0,0,2-2V25A2,2,0,0,0,31,23Zm-2,4V25h2l0,2Z" fill="#84c14c" fill-opacity="1" data-original-color="#000000ff" stroke="none" stroke-opacity="1"></path><path d="M43,23H41a2,2,0,0,0-2,2v2a2,2,0,0,0,2,2h2a2,2,0,0,0,2-2V25A2,2,0,0,0,43,23Zm-2,4V25h2l0,2Z" fill="#84c14c" fill-opacity="1" data-original-color="#000000ff" stroke="none" stroke-opacity="1"></path><path d="M17,37h2a2,2,0,0,0,2-2V33a2,2,0,0,0-2-2H17a2,2,0,0,0-2,2v2A2,2,0,0,0,17,37Zm0-4h2l0,2H17Z" fill="#84c14c" fill-opacity="1" data-original-color="#000000ff" stroke="none" stroke-opacity="1"></path><path d="M31,31H29a2,2,0,0,0-2,2v2a2,2,0,0,0,2,2h2a2,2,0,0,0,2-2V33A2,2,0,0,0,31,31Zm-2,4V33h2l0,2Z" fill="#84c14c" fill-opacity="1" data-original-color="#000000ff" stroke="none" stroke-opacity="1"></path><path d="M43,31H41a2,2,0,0,0-2,2v2a2,2,0,0,0,2,2h2a2,2,0,0,0,2-2V33A2,2,0,0,0,43,31Zm-2,4V33h2l0,2Z" fill="#84c14c" fill-opacity="1" data-original-color="#000000ff" stroke="none" stroke-opacity="1"></path><path d="M31,39H29a2,2,0,0,0-2,2v2a2,2,0,0,0,2,2h2a2,2,0,0,0,2-2V41A2,2,0,0,0,31,39Zm-2,4V41h2l0,2Z" fill="#84c14c" fill-opacity="1" data-original-color="#000000ff" stroke="none" stroke-opacity="1"></path><path d="M46.921,19.387a20.071,20.071,0,0,0-10.512-8.315c-.018-.008-.037-.013-.057-.021a19.721,19.721,0,0,0-12.7,0c-.02.008-.039.013-.057.021a20.071,20.071,0,0,0-10.512,8.315.973.973,0,0,0-.158.26A19.848,19.848,0,0,0,15.194,43.4a1.047,1.047,0,0,0,.152.167q.515.556,1.068,1.071a1,1,0,0,0,.167.151,19.982,19.982,0,0,0,7.01,4.141c.018.008.037.013.056.02a19.706,19.706,0,0,0,12.7,0c.02-.007.039-.012.057-.02a19.982,19.982,0,0,0,7.01-4.141,1,1,0,0,0,.167-.152q.567-.526,1.091-1.095A1.064,1.064,0,0,0,44.8,43.4a19.849,19.849,0,0,0,2.278-23.757A.973.973,0,0,0,46.921,19.387ZM44.216,19H37V13.417A18.084,18.084,0,0,1,44.216,19ZM35,12.721V19H25V12.721a17.7,17.7,0,0,1,10,0Zm-12,.7V19H15.784A18.084,18.084,0,0,1,23,13.417ZM14.436,21H23V46.583a18.025,18.025,0,0,1-3.188-1.759A2,2,0,0,0,21,43V41a2,2,0,0,0-2-2H17a2,2,0,0,0-1.824,1.188A17.889,17.889,0,0,1,14.436,21ZM17,42.416V41h2v2H17.584Q17.286,42.715,17,42.416Zm8,4.863V21H35V47.279a17.7,17.7,0,0,1-10,0ZM41,43V41h2v1.416q-.285.3-.584.584Zm3.824-2.812A2,2,0,0,0,43,39H41a2,2,0,0,0-2,2v2a2,2,0,0,0,1.188,1.824A18.025,18.025,0,0,1,37,46.583V21h8.564a17.889,17.889,0,0,1-.74,19.188Z" fill="#84c14c" fill-opacity="1" data-original-color="#000000ff" stroke="none" stroke-opacity="1"></path></g></svg>