<svg xmlns="http://www.w3.org/2000/svg" xmlns:xlink="http://www.w3.org/1999/xlink" xmlns:svgjs="http://svgjs.dev/svgjs" id="Icons" height="300" viewBox="0 0 60 60" width="300"><g width="100%" height="100%" transform="matrix(1,0,0,1,0,0)"><path d="m37.882 5.918c-.257-.773-.906-1.339-1.693-1.475l-2.893-.501-1.358-2.728s0 0 0 0c-.375-.748-1.117-1.214-1.938-1.214s-1.563.466-1.938 1.215l-1.358 2.728-2.892.501c-.788.136-1.438.701-1.694 1.475-.265.794-.075 1.66.494 2.263l2.08 2.202-.442 3.066c-.122.842.228 1.667.912 2.152.37.263.803.396 1.237.396.337 0 .676-.08.987-.243l2.613-1.361 2.613 1.361c.714.374 1.567.313 2.225-.153.685-.485 1.034-1.311.912-2.152l-.442-3.066 2.08-2.202c.569-.603.759-1.469.494-2.263zm-1.947.89-2.412 2.554c-.21.222-.307.527-.263.829l.512 3.544c.02.142-.057.212-.09.236-.07.047-.118.024-.145.011l-3.075-1.603c-.289-.15-.635-.15-.924 0l-3.075 1.603c-.027.014-.076.036-.145-.011-.033-.024-.109-.095-.09-.236l.512-3.544c.044-.302-.053-.607-.263-.829l-2.412-2.554c-.091-.097-.065-.213-.05-.258.026-.079.072-.124.138-.136l3.392-.588c.313-.055.582-.255.725-.54l1.584-3.18c.013-.026.053-.106.146-.106s.134.079.146.105l1.584 3.181c.143.285.411.485.725.54l3.393.588c.064.012.11.057.137.136.016.045.041.161-.05.258z" fill="#7dc144" fill-opacity="1" data-original-color="#000000ff" stroke="none" stroke-opacity="1"></path><path d="m19.882 13.918c-.257-.773-.906-1.339-1.693-1.475l-2.893-.501-1.358-2.728s0 0 0 0c-.373-.748-1.115-1.214-1.937-1.214s-1.563.466-1.938 1.215l-1.358 2.728-2.892.501c-.788.136-1.438.701-1.694 1.475-.265.794-.075 1.66.494 2.263l2.08 2.202-.442 3.066c-.122.842.228 1.667.912 2.152.37.263.803.396 1.237.396.337 0 .676-.08.987-.243l2.613-1.361 2.613 1.361c.715.374 1.568.313 2.225-.153.685-.485 1.034-1.311.912-2.152l-.442-3.066 2.08-2.202c.569-.603.759-1.469.494-2.263zm-1.947.89-2.412 2.554c-.21.222-.307.527-.263.829l.512 3.544c.02.142-.057.212-.09.236-.07.047-.118.025-.145.011l-3.075-1.603c-.289-.15-.635-.15-.924 0l-3.075 1.603c-.027.015-.075.036-.145-.011-.033-.024-.109-.095-.09-.236l.512-3.544c.044-.302-.053-.607-.263-.829l-2.412-2.554c-.091-.097-.065-.213-.05-.258.026-.079.072-.124.138-.136l3.392-.588c.313-.055.582-.255.725-.54l1.584-3.18c.013-.026.053-.106.146-.106s.134.079.146.105l1.584 3.181c.143.285.411.485.725.54l3.393.588c.064.012.11.057.137.136.016.045.041.161-.05.258z" fill="#7dc144" fill-opacity="1" data-original-color="#000000ff" stroke="none" stroke-opacity="1"></path><path d="m55.882 13.918c-.257-.773-.906-1.339-1.693-1.475l-2.893-.501-1.358-2.728s0 0 0 0c-.373-.748-1.115-1.214-1.937-1.214s-1.563.466-1.938 1.215l-1.358 2.728-2.892.501c-.788.136-1.438.701-1.694 1.475-.265.794-.075 1.66.494 2.263l2.08 2.202-.442 3.066c-.122.842.228 1.667.912 2.152.37.263.803.396 1.237.396.337 0 .676-.08.987-.243l2.613-1.361 2.613 1.361c.714.374 1.568.313 2.225-.153.685-.485 1.034-1.311.912-2.152l-.442-3.066 2.08-2.202c.569-.603.759-1.469.494-2.263zm-1.947.89-2.412 2.554c-.21.222-.307.527-.263.829l.512 3.544c.02.142-.057.212-.09.236-.07.047-.118.025-.145.011l-3.075-1.603c-.289-.15-.635-.15-.924 0l-3.075 1.603c-.026.015-.076.036-.145-.011-.033-.024-.109-.095-.09-.236l.512-3.544c.044-.302-.053-.607-.263-.829l-2.412-2.554c-.091-.097-.065-.213-.05-.258.026-.079.072-.124.138-.136l3.392-.588c.313-.055.582-.255.725-.54l1.584-3.18c.013-.026.053-.106.146-.106s.134.079.146.105l1.584 3.181c.143.285.411.485.725.54l3.393.588c.064.012.11.057.137.136.016.045.041.161-.05.258z" fill="#7dc144" fill-opacity="1" data-original-color="#000000ff" stroke="none" stroke-opacity="1"></path><path d="m30 24c-16.542 0-30 13.458-30 30 0 1.103.897 2 2 2h12c1.103 0 2-.897 2-2 0-7.72 6.28-14 14-14 4.735 0 9.112 2.396 11.691 6.32-4.46 1.577-7.918 2.85-10.464 3.85-.395-.101-.801-.17-1.227-.17-2.757 0-5 2.243-5 5s2.243 5 5 5c1.969 0 3.66-1.154 4.475-2.813 2.613-1.423 5.967-3.355 9.341-5.335.11.708.184 1.424.184 2.148 0 1.103.897 2 2 2h12c1.103 0 2-.897 2-2 0-16.542-13.458-30-30-30zm10.577 18.009c-2.634-2.326-5.99-3.751-9.577-3.975v-12.009c6.966.246 13.291 3.046 18.066 7.495zm-26.577 11.991h-12c0-7.361 2.859-14.063 7.52-19.066l8.498 8.498c-2.492 2.822-4.018 6.516-4.018 10.568zm5.432-11.982-8.498-8.498c4.775-4.448 11.099-7.248 18.066-7.495v12.025c-3.658.228-6.981 1.683-9.568 3.968zm31.823 3.093c-4.799 2.872-11.447 6.824-16.293 9.523-.092-1.247-.623-2.372-1.465-3.198 4.025-1.535 9.865-3.616 17.758-6.325zm-21.256 12.889c-1.654 0-3-1.346-3-3s1.346-3 3-3 3 1.346 3 3-1.346 3-3 3zm16-4c0-1.094-.116-2.178-.335-3.236 2.351-1.388 4.643-2.755 6.622-3.938.899-.545 1.23-1.626.789-2.571-.439-.939-1.469-1.381-2.461-1.039-2.541.872-4.863 1.678-6.989 2.424-.486-.791-1.035-1.529-1.638-2.213l8.491-8.491c4.661 5.003 7.52 11.705 7.52 19.066h-12z" fill="#7dc144" fill-opacity="1" data-original-color="#000000ff" stroke="none" stroke-opacity="1"></path></g></svg>