<svg xmlns="http://www.w3.org/2000/svg" xmlns:xlink="http://www.w3.org/1999/xlink" xmlns:svgjs="http://svgjs.dev/svgjs" id="Layer_1" viewBox="0 0 512 512" width="300" height="300"><g width="100%" height="100%" transform="matrix(1,0,0,1,0,0)"><path d="m289.83 181.21c0-52.57-42.77-95.34-95.34-95.34s-95.34 42.77-95.34 95.34 42.77 95.34 95.34 95.34 95.34-42.77 95.34-95.34zm-174.69 0c0-43.75 35.59-79.34 79.34-79.34s79.34 35.59 79.34 79.34c0 20.75-8.02 39.66-21.11 53.82-8.52-11.32-20.07-19.83-33.12-24.65 10.87-7.83 17.97-20.58 17.97-34.97 0-23.75-19.33-43.08-43.08-43.08s-43.08 19.33-43.08 43.08c0 14.39 7.1 27.14 17.97 34.97-13.05 4.82-24.6 13.33-33.12 24.65-13.09-14.16-21.11-33.07-21.11-53.82zm79.35 21.27c-14.93 0-27.08-12.15-27.08-27.08s12.15-27.08 27.08-27.08 27.08 12.15 27.08 27.08-12.15 27.08-27.08 27.08zm-46.2 43.17c10.66-14.82 27.81-23.79 46.19-23.79s35.53 8.97 46.19 23.79c-13.02 9.36-28.97 14.89-46.19 14.89s-33.16-5.53-46.19-14.89zm192.85-4.3c-1.56 0-3.12.03-4.67.08 3.23-7.6 5.84-15.45 7.81-23.48h22.42c4.42 0 8-3.58 8-8v-57.47c0-4.42-3.58-8-8-8h-22.42c-3.72-15.27-9.73-29.75-17.9-43.2l15.86-15.86c3.12-3.12 3.12-8.19 0-11.31l-40.64-40.64c-3.12-3.12-8.19-3.12-11.31 0l-15.86 15.86c-13.45-8.18-27.94-14.18-43.19-17.9v-22.43c0-4.42-3.58-8-8-8h-57.47c-4.42 0-8 3.58-8 8v22.42c-15.27 3.73-29.75 9.73-43.19 17.91l-15.88-15.87c-3.12-3.12-8.19-3.12-11.31 0l-40.65 40.64c-1.5 1.5-2.34 3.54-2.34 5.66s.84 4.16 2.34 5.66l15.86 15.86c-8.18 13.45-14.18 27.93-17.9 43.19h-22.42c-4.42 0-8 3.58-8 8v57.47c0 4.42 3.58 8 8 8h22.42c3.73 15.27 9.73 29.75 17.9 43.19l-15.86 15.87c-3.12 3.12-3.12 8.19 0 11.31l40.64 40.64c1.5 1.5 3.54 2.34 5.66 2.34s4.16-.84 5.66-2.34l15.86-15.86c13.45 8.18 27.93 14.18 43.19 17.91v22.42c0 4.42 3.58 8 8 8h23.11c-2.81 11.72-4.31 23.95-4.31 36.52 0 41.83 16.29 81.15 45.86 110.72 1.56 1.56 3.61 2.34 5.66 2.34s4.09-.78 5.66-2.34l52.14-52.14c1.5-1.5 2.34-3.54 2.34-5.66s-.84-4.16-2.34-5.66c-12.63-12.62-19.58-29.41-19.58-47.27 0-36.86 29.99-66.84 66.84-66.84s66.84 29.99 66.84 66.84c0 17.86-6.95 34.64-19.58 47.27-3.12 3.12-3.12 8.19 0 11.31l52.14 52.14c1.5 1.5 3.54 2.34 5.66 2.34s4.16-.84 5.66-2.34c29.58-29.58 45.86-68.9 45.86-110.72.01-86.34-70.23-156.58-156.57-156.58zm-167.39 104.07v-20.84c0-3.82-2.69-7.1-6.44-7.85-17.72-3.53-34.35-10.43-49.43-20.49-3.17-2.12-7.4-1.7-10.1 1l-14.75 14.75-29.33-29.33 14.74-14.74c2.7-2.7 3.12-6.92 1-10.1-10.06-15.07-16.95-31.7-20.49-49.43-.75-3.74-4.03-6.44-7.85-6.44h-20.82v-41.47h20.84c3.82 0 7.1-2.69 7.85-6.44 3.53-17.72 10.43-34.35 20.49-49.43 2.12-3.17 1.7-7.4-1-10.1l-14.75-14.75 29.33-29.33 14.74 14.74c2.7 2.7 6.93 3.11 10.1 1 15.07-10.06 31.71-16.96 49.44-20.49 3.74-.75 6.44-4.03 6.44-7.85v-20.83h41.47v20.84c0 3.82 2.69 7.1 6.44 7.85 17.72 3.53 34.35 10.43 49.44 20.49 3.17 2.12 7.4 1.7 10.1-1l14.74-14.74 29.33 29.33-14.76 14.73c-2.7 2.7-3.12 6.92-1 10.1 10.06 15.07 16.95 31.71 20.49 49.44.75 3.74 4.03 6.44 7.85 6.44h20.84v41.47h-20.84c-3.82 0-7.1 2.69-7.85 6.44-2.4 12.05-6.42 23.69-11.92 34.67-57.75 8.56-105.32 48.76-124.47 102.37h-19.87zm103.42 105.17-40.94 40.94c-21.29-23.81-33.67-53.7-35.45-85.59h57.9c1.57 16.46 7.95 31.9 18.49 44.65zm-18.48-60.65h-57.9c1.85-32.75 14.95-62.53 35.5-85.54l40.92 40.91c-10.22 12.39-16.9 27.78-18.52 44.63zm29.82-55.94-40.91-40.92c23.01-20.55 52.79-33.65 85.54-35.5v57.9c-16.85 1.63-32.24 8.31-44.63 18.52zm60.63-18.52v-57.9c32.75 1.85 62.53 14.95 85.54 35.5l-40.92 40.92c-12.38-10.21-27.78-16.89-44.62-18.52zm55.93 29.83 40.91-40.92c20.55 23.01 33.65 52.79 35.5 85.54h-57.9c-1.61-16.84-8.29-32.23-18.51-44.62zm40.97 146.22-40.94-40.94c10.53-12.75 16.92-28.19 18.48-44.66h57.9c-1.77 31.89-14.14 61.79-35.44 85.6zm-76.8-133.01-17.47 17.47c-3.22-1.56-6.83-2.44-10.64-2.44-13.45 0-24.39 10.94-24.39 24.39s10.94 24.39 24.39 24.39 24.39-10.94 24.39-24.39c0-3.81-.88-7.42-2.44-10.64l17.47-17.47c3.12-3.12 3.12-8.19 0-11.31s-8.19-3.12-11.31 0zm-28.1 47.81c-4.63 0-8.39-3.77-8.39-8.39s3.77-8.39 8.39-8.39 8.39 3.77 8.39 8.39-3.76 8.39-8.39 8.39z" fill="#84c14c" fill-opacity="1" data-original-color="#000000ff" stroke="none" stroke-opacity="1"></path></g></svg>